<svg width="753" height="106" viewBox="0 0 753 106" fill="none" xmlns="http://www.w3.org/2000/svg">
<path d="M128.416 63.172C128.416 58.94 129.029 55.2293 130.256 52.04C131.544 48.8507 133.231 46.2133 135.316 44.128C137.401 41.9813 139.793 40.3867 142.492 39.344C145.191 38.24 147.951 37.688 150.772 37.688C157.396 37.688 162.548 39.7427 166.228 43.852C169.969 47.9613 171.84 54.0947 171.84 62.252C171.84 62.8653 171.809 63.5707 171.748 64.368C171.748 65.104 171.717 65.7787 171.656 66.392H139.916C140.223 70.256 141.572 73.2613 143.964 75.408C146.417 77.4933 149.944 78.536 154.544 78.536C157.243 78.536 159.696 78.2907 161.904 77.8C164.173 77.3093 165.952 76.788 167.24 76.236L168.712 85.344C168.099 85.6507 167.24 85.988 166.136 86.356C165.093 86.6627 163.867 86.9387 162.456 87.184C161.107 87.4907 159.635 87.736 158.04 87.92C156.445 88.104 154.82 88.196 153.164 88.196C148.932 88.196 145.252 87.5827 142.124 86.356C138.996 85.068 136.42 83.32 134.396 81.112C132.372 78.8427 130.869 76.2053 129.888 73.2C128.907 70.1333 128.416 66.7907 128.416 63.172ZM160.708 58.204C160.708 56.6707 160.493 55.2293 160.064 53.88C159.635 52.4693 158.991 51.2733 158.132 50.292C157.335 49.2493 156.323 48.452 155.096 47.9C153.931 47.2867 152.52 46.98 150.864 46.98C149.147 46.98 147.644 47.3173 146.356 47.992C145.068 48.6053 143.964 49.4333 143.044 50.476C142.185 51.5187 141.511 52.7147 141.02 54.064C140.529 55.4133 140.192 56.7933 140.008 58.204H160.708ZM215.567 63.172C215.567 58.204 214.432 54.34 212.163 51.58C209.955 48.82 206.367 47.44 201.399 47.44C200.356 47.44 199.252 47.5013 198.087 47.624C196.983 47.6853 195.879 47.8693 194.775 48.176V75.684C195.756 76.3587 197.044 77.0027 198.639 77.616C200.295 78.168 202.043 78.444 203.883 78.444C207.931 78.444 210.875 77.064 212.715 74.304C214.616 71.544 215.567 67.8333 215.567 63.172ZM226.975 62.988C226.975 66.668 226.484 70.0413 225.503 73.108C224.583 76.1747 223.233 78.812 221.455 81.02C219.676 83.228 217.437 84.9453 214.739 86.172C212.101 87.3987 209.096 88.012 205.723 88.012C203.453 88.012 201.368 87.736 199.467 87.184C197.565 86.632 196.001 86.0187 194.775 85.344V104.02H183.643V40.448C185.912 39.8347 188.703 39.252 192.015 38.7C195.327 38.148 198.823 37.872 202.503 37.872C206.305 37.872 209.709 38.4547 212.715 39.62C215.72 40.7853 218.265 42.472 220.351 44.68C222.497 46.8267 224.123 49.464 225.227 52.592C226.392 55.6587 226.975 59.124 226.975 62.988ZM238.447 87V17.448L249.579 15.608V39.436C250.806 39.0067 252.217 38.6387 253.811 38.332C255.467 38.0253 257.093 37.872 258.687 37.872C262.551 37.872 265.741 38.424 268.255 39.528C270.831 40.5707 272.886 42.0733 274.419 44.036C275.953 45.9373 277.026 48.2373 277.639 50.936C278.314 53.6347 278.651 56.64 278.651 59.952V87H267.519V61.7C267.519 59.124 267.335 56.9467 266.967 55.168C266.661 53.328 266.109 51.856 265.311 50.752C264.575 49.5867 263.563 48.7587 262.275 48.268C260.987 47.716 259.393 47.44 257.491 47.44C256.019 47.44 254.517 47.5933 252.983 47.9C251.45 48.2067 250.315 48.4827 249.579 48.728V87H238.447ZM289.326 63.172C289.326 58.94 289.939 55.2293 291.166 52.04C292.454 48.8507 294.141 46.2133 296.226 44.128C298.311 41.9813 300.703 40.3867 303.402 39.344C306.101 38.24 308.861 37.688 311.682 37.688C318.306 37.688 323.458 39.7427 327.138 43.852C330.879 47.9613 332.75 54.0947 332.75 62.252C332.75 62.8653 332.719 63.5707 332.658 64.368C332.658 65.104 332.627 65.7787 332.566 66.392H300.826C301.133 70.256 302.482 73.2613 304.874 75.408C307.327 77.4933 310.854 78.536 315.454 78.536C318.153 78.536 320.606 78.2907 322.814 77.8C325.083 77.3093 326.862 76.788 328.15 76.236L329.622 85.344C329.009 85.6507 328.15 85.988 327.046 86.356C326.003 86.6627 324.777 86.9387 323.366 87.184C322.017 87.4907 320.545 87.736 318.95 87.92C317.355 88.104 315.73 88.196 314.074 88.196C309.842 88.196 306.162 87.5827 303.034 86.356C299.906 85.068 297.33 83.32 295.306 81.112C293.282 78.8427 291.779 76.2053 290.798 73.2C289.817 70.1333 289.326 66.7907 289.326 63.172ZM321.618 58.204C321.618 56.6707 321.403 55.2293 320.974 53.88C320.545 52.4693 319.901 51.2733 319.042 50.292C318.245 49.2493 317.233 48.452 316.006 47.9C314.841 47.2867 313.43 46.98 311.774 46.98C310.057 46.98 308.554 47.3173 307.266 47.992C305.978 48.6053 304.874 49.4333 303.954 50.476C303.095 51.5187 302.421 52.7147 301.93 54.064C301.439 55.4133 301.102 56.7933 300.918 58.204H321.618ZM371.969 61.7C371.969 56.6707 371.325 53.052 370.037 50.844C368.81 48.5747 366.479 47.44 363.045 47.44C361.818 47.44 360.469 47.532 358.997 47.716C357.525 47.9 356.421 48.0533 355.685 48.176V87H344.553V40.448C346.699 39.8347 349.49 39.252 352.925 38.7C356.421 38.148 360.101 37.872 363.965 37.872C367.277 37.872 369.975 38.3013 372.061 39.16C374.207 40.0187 375.986 41.1533 377.397 42.564C378.071 42.0733 378.93 41.552 379.973 41C381.015 40.448 382.181 39.9573 383.469 39.528C384.757 39.0373 386.106 38.6387 387.517 38.332C388.989 38.0253 390.461 37.872 391.933 37.872C395.674 37.872 398.741 38.424 401.133 39.528C403.586 40.5707 405.487 42.0733 406.837 44.036C408.247 45.9373 409.198 48.268 409.689 51.028C410.241 53.7267 410.517 56.7013 410.517 59.952V87H399.385V61.7C399.385 56.6707 398.771 53.052 397.545 50.844C396.318 48.5747 393.957 47.44 390.461 47.44C388.682 47.44 386.995 47.7467 385.401 48.36C383.806 48.912 382.61 49.464 381.813 50.016C382.303 51.5493 382.641 53.1747 382.825 54.892C383.009 56.6093 383.101 58.4493 383.101 60.412V87H371.969V61.7ZM421.486 63.172C421.486 58.94 422.1 55.2293 423.326 52.04C424.614 48.8507 426.301 46.2133 428.386 44.128C430.472 41.9813 432.864 40.3867 435.562 39.344C438.261 38.24 441.021 37.688 443.842 37.688C450.466 37.688 455.618 39.7427 459.298 43.852C463.04 47.9613 464.91 54.0947 464.91 62.252C464.91 62.8653 464.88 63.5707 464.818 64.368C464.818 65.104 464.788 65.7787 464.726 66.392H432.986C433.293 70.256 434.642 73.2613 437.034 75.408C439.488 77.4933 443.014 78.536 447.614 78.536C450.313 78.536 452.766 78.2907 454.974 77.8C457.244 77.3093 459.022 76.788 460.31 76.236L461.782 85.344C461.169 85.6507 460.31 85.988 459.206 86.356C458.164 86.6627 456.937 86.9387 455.526 87.184C454.177 87.4907 452.705 87.736 451.11 87.92C449.516 88.104 447.89 88.196 446.234 88.196C442.002 88.196 438.322 87.5827 435.194 86.356C432.066 85.068 429.49 83.32 427.466 81.112C425.442 78.8427 423.94 76.2053 422.958 73.2C421.977 70.1333 421.486 66.7907 421.486 63.172ZM453.778 58.204C453.778 56.6707 453.564 55.2293 453.134 53.88C452.705 52.4693 452.061 51.2733 451.202 50.292C450.405 49.2493 449.393 48.452 448.166 47.9C447.001 47.2867 445.59 46.98 443.934 46.98C442.217 46.98 440.714 47.3173 439.426 47.992C438.138 48.6053 437.034 49.4333 436.114 50.476C435.256 51.5187 434.581 52.7147 434.09 54.064C433.6 55.4133 433.262 56.7933 433.078 58.204H453.778ZM504.129 48.912C503.209 48.6053 501.921 48.2987 500.265 47.992C498.67 47.624 496.8 47.44 494.653 47.44C493.426 47.44 492.108 47.5627 490.697 47.808C489.348 48.0533 488.397 48.268 487.845 48.452V87H476.713V41.184C478.86 40.3867 481.528 39.6507 484.717 38.976C487.968 38.24 491.556 37.872 495.481 37.872C496.217 37.872 497.076 37.9333 498.057 38.056C499.038 38.1173 500.02 38.24 501.001 38.424C501.982 38.5467 502.933 38.7307 503.853 38.976C504.773 39.16 505.509 39.344 506.061 39.528L504.129 48.912ZM530.746 79.18C534.181 79.18 536.788 78.996 538.566 78.628V66.3C537.953 66.116 537.064 65.932 535.898 65.748C534.733 65.564 533.445 65.472 532.034 65.472C530.808 65.472 529.55 65.564 528.262 65.748C527.036 65.932 525.901 66.2693 524.858 66.76C523.877 67.2507 523.08 67.956 522.466 68.876C521.853 69.7347 521.546 70.8387 521.546 72.188C521.546 74.8253 522.374 76.6653 524.03 77.708C525.686 78.6893 527.925 79.18 530.746 79.18ZM529.826 37.688C533.506 37.688 536.604 38.148 539.118 39.068C541.633 39.988 543.626 41.276 545.098 42.932C546.632 44.588 547.705 46.612 548.318 49.004C548.993 51.3347 549.33 53.9107 549.33 56.732V85.896C547.613 86.264 545.006 86.6933 541.51 87.184C538.076 87.736 534.181 88.012 529.826 88.012C526.944 88.012 524.306 87.736 521.914 87.184C519.522 86.632 517.468 85.7427 515.75 84.516C514.094 83.2893 512.776 81.6947 511.794 79.732C510.874 77.7693 510.414 75.3467 510.414 72.464C510.414 69.704 510.936 67.3733 511.978 65.472C513.082 63.5707 514.554 62.0373 516.394 60.872C518.234 59.6453 520.35 58.7867 522.742 58.296C525.196 57.744 527.741 57.468 530.378 57.468C531.605 57.468 532.893 57.56 534.242 57.744C535.592 57.8667 537.033 58.112 538.566 58.48V56.64C538.566 55.352 538.413 54.1253 538.106 52.96C537.8 51.7947 537.248 50.7827 536.45 49.924C535.714 49.004 534.702 48.2987 533.414 47.808C532.188 47.3173 530.624 47.072 528.722 47.072C526.146 47.072 523.785 47.256 521.638 47.624C519.492 47.992 517.744 48.4213 516.394 48.912L515.014 39.896C516.425 39.4053 518.48 38.9147 521.178 38.424C523.877 37.9333 526.76 37.688 529.826 37.688ZM579.707 87.92C576.395 87.8587 573.635 87.4907 571.427 86.816C569.28 86.1413 567.563 85.1907 566.275 83.964C564.987 82.676 564.067 81.112 563.515 79.272C563.024 77.3707 562.779 75.224 562.779 72.832V17.448L573.911 15.608V70.716C573.911 72.0653 574.003 73.2 574.187 74.12C574.432 75.04 574.831 75.8373 575.383 76.512C575.935 77.1253 576.671 77.616 577.591 77.984C578.572 78.2907 579.799 78.536 581.271 78.72L579.707 87.92Z" fill="black"/>
<path d="M602.787 80.928C602.787 83.0747 602.051 84.8227 600.579 86.172C599.169 87.5213 597.451 88.196 595.427 88.196C593.342 88.196 591.594 87.5213 590.183 86.172C588.773 84.8227 588.067 83.0747 588.067 80.928C588.067 78.7813 588.773 77.0333 590.183 75.684C591.594 74.2733 593.342 73.568 595.427 73.568C597.451 73.568 599.169 74.2733 600.579 75.684C602.051 77.0333 602.787 78.7813 602.787 80.928ZM642.129 48.912C641.209 48.6053 639.921 48.2987 638.265 47.992C636.67 47.624 634.8 47.44 632.653 47.44C631.426 47.44 630.108 47.5627 628.697 47.808C627.348 48.0533 626.397 48.268 625.845 48.452V87H614.713V41.184C616.86 40.3867 619.528 39.6507 622.717 38.976C625.968 38.24 629.556 37.872 633.481 37.872C634.217 37.872 635.076 37.9333 636.057 38.056C637.038 38.1173 638.02 38.24 639.001 38.424C639.982 38.5467 640.933 38.7307 641.853 38.976C642.773 39.16 643.509 39.344 644.061 39.528L642.129 48.912ZM691.286 85.528C689.14 86.08 686.349 86.632 682.914 87.184C679.48 87.7973 675.708 88.104 671.598 88.104C667.734 88.104 664.484 87.552 661.846 86.448C659.27 85.344 657.185 83.8107 655.59 81.848C654.057 79.8853 652.953 77.5547 652.278 74.856C651.604 72.096 651.266 69.0907 651.266 65.84V38.884H662.398V64.092C662.398 69.244 663.134 72.924 664.606 75.132C666.14 77.34 668.777 78.444 672.518 78.444C673.868 78.444 675.278 78.3827 676.75 78.26C678.284 78.1373 679.418 77.984 680.154 77.8V38.884H691.286V85.528ZM705.455 40.448C707.602 39.8347 710.392 39.252 713.827 38.7C717.262 38.148 721.064 37.872 725.235 37.872C729.16 37.872 732.442 38.424 735.079 39.528C737.716 40.5707 739.802 42.0733 741.335 44.036C742.93 45.9373 744.034 48.268 744.647 51.028C745.322 53.7267 745.659 56.7013 745.659 59.952V87H734.527V61.7C734.527 59.124 734.343 56.9467 733.975 55.168C733.668 53.328 733.116 51.856 732.319 50.752C731.583 49.5867 730.54 48.7587 729.191 48.268C727.903 47.716 726.308 47.44 724.407 47.44C722.996 47.44 721.524 47.532 719.991 47.716C718.458 47.9 717.323 48.0533 716.587 48.176V87H705.455V40.448Z" fill="#828282"/>
<path d="M69.0578 56.8265L48.5138 44.9986C46.5138 43.8471 44.017 45.2907 44.017 47.5985L44.0169 71.2543C44.0169 73.5621 46.5138 75.0057 48.5138 73.8542L69.0578 62.0263C71.062 60.8724 71.062 57.9804 69.0578 56.8265Z" fill="#828282"/>
<rect y="20" width="58" height="13" rx="4" fill="black"/>
<rect y="86" width="58" height="13" rx="4" fill="black"/>
<rect y="53" width="35" height="13" rx="4" fill="black"/>
</svg>
